<svg xmlns="http://www.w3.org/2000/svg" x="0px" y="0px" width="64" height="64" viewBox="0 0 172 172" style=" fill:#000000;">
    <g fill="none" fill-rule="nonzero" stroke="none" stroke-width="1" stroke-linecap="butt" stroke-linejoin="miter" stroke-miterlimit="10" stroke-dasharray="" stroke-dashoffset="0" font-family="none" font-weight="none" font-size="none" text-anchor="none" style="mix-blend-mode: normal">
        <path d="M0,172v-172h172v172z" fill="none"></path>
        <g fill="#43b581">
            <path d="M85.80382,9.08343c-3.63281,0.10612 -6.5227,3.08176 -6.52257,6.71613v9.31833c4.46872,-0.43269 8.96878,-0.43269 13.4375,0v-9.31833c0.00006,-1.81599 -0.73498,-3.55466 -2.03766,-4.81989c-1.30269,-1.26523 -3.06206,-1.94926 -4.87727,-1.89623zM86,30.16745c-36.63936,0 -66.4487,29.80768 -66.4487,66.44804c0,36.64037 29.80934,66.4487 66.4487,66.4487c36.63936,0 66.4487,-29.80867 66.4487,-66.4487c0,-36.64003 -29.80934,-66.44804 -66.4487,-66.44804zM86,39.48447c31.5022,0 57.13103,25.62916 57.13103,57.13103c0,31.50187 -25.62882,57.13168 -57.13103,57.13168v-0.00131c-31.5022,0 -57.13103,-25.62882 -57.13103,-57.13103c0,-31.5022 25.62882,-57.13037 57.13103,-57.13037zM86,44.85947c-28.53856,0 -51.75603,23.21812 -51.75603,51.75668c0,28.53856 23.21746,51.75603 51.75603,51.75603c28.53856,0 51.75603,-23.21779 51.75603,-51.75668c0,-28.5389 -23.21746,-51.75603 -51.75603,-51.75603zM111.76221,68.17563c0.90145,0.00305 1.74133,0.45785 2.23655,1.21111c0.49522,0.75325 0.5798,1.70461 0.22524,2.53341l-15.42491,36.08047c-0.27178,0.63626 -0.77848,1.14319 -1.41461,1.41527l-36.07982,15.4236c-1.00616,0.43022 -2.1727,0.20742 -2.9495,-0.56331c-0.77679,-0.77074 -1.00871,-1.9355 -0.58638,-2.945l15.19658,-36.3075c0.27254,-0.65117 0.79034,-1.16897 1.44151,-1.44151l36.30815,-15.19789c0.33159,-0.13889 0.68768,-0.20984 1.04718,-0.20865zM106.67591,75.90153l-26.49773,11.09184l15.2412,15.2412zM76.37723,90.79433l-11.09119,26.49773l26.33238,-11.25653z"></path>
        </g>
    </g>
</svg>